<svg width="416" height="103" viewBox="200 515 416 103" fill="none" xmlns="http://www.w3.org/2000/svg">
  <!-- Safeti full logo: blue icon + black wordmark -->
  
  <!-- Small icon: four staggered bars -->
  <path d="M206.169 515C202.762 515 200 517.778 200 521.205V524.889C200 528.316 202.762 531.094 206.169 531.094H305.831C309.238 531.094 312 528.316 312 524.889V521.205C312 517.778 309.238 515 305.831 515H206.169Z" fill="#2860F8"/>
  <path d="M200 550.174C200 546.747 202.762 543.969 206.169 543.969H265.831C269.238 543.969 272 546.747 272 550.174V553.858C272 557.285 269.238 560.062 265.831 560.062H206.169C202.762 560.062 200 557.285 200 553.858V550.174Z" fill="#2860F8"/>
  <path d="M246.169 572.937C242.762 572.937 240 575.715 240 579.142V582.826C240 586.253 242.762 589.031 246.169 589.031H305.831C309.238 589.031 312 586.253 312 582.826V579.142C312 575.715 309.238 572.937 305.831 572.937H246.169Z" fill="#2860F8"/>
  <path d="M206.169 601.906C202.762 601.906 200 604.684 200 608.111V611.795C200 615.222 202.762 618 206.169 618H305.831C309.238 618 312 615.222 312 611.795V608.111C312 604.684 309.238 601.906 305.831 601.906H206.169Z" fill="#2860F8"/>
  
  <!-- Wordmark: "Safeti" -->
  <path d="M372.888 604.805C368.357 604.805 364.278 604.027 360.653 602.47C357.028 600.848 354.179 598.577 352.107 595.658C350.036 592.739 349 589.333 349 585.44H360.847C361.106 588.36 362.239 590.76 364.246 592.641C366.317 594.523 369.198 595.464 372.888 595.464C376.708 595.464 379.686 594.555 381.822 592.739C383.959 590.857 385.027 588.457 385.027 585.538C385.027 583.267 384.347 581.418 382.988 579.991C381.693 578.564 380.042 577.461 378.035 576.682C376.093 575.904 373.374 575.061 369.878 574.152C365.476 572.985 361.883 571.817 359.099 570.649C356.38 569.417 354.05 567.535 352.107 565.005C350.165 562.475 349.194 559.102 349.194 554.885C349.194 550.992 350.165 547.586 352.107 544.667C354.05 541.748 356.769 539.51 360.264 537.953C363.76 536.396 367.806 535.617 372.403 535.617C378.941 535.617 384.282 537.271 388.426 540.58C392.633 543.824 394.964 548.3 395.417 554.009H383.182C382.988 551.544 381.822 549.435 379.686 547.684C377.55 545.932 374.733 545.056 371.238 545.056C368.065 545.056 365.476 545.867 363.469 547.489C361.462 549.111 360.459 551.446 360.459 554.496C360.459 556.571 361.074 558.291 362.304 559.653C363.598 560.95 365.217 561.988 367.159 562.767C369.101 563.545 371.755 564.389 375.122 565.297C379.589 566.53 383.214 567.762 385.998 568.995C388.846 570.227 391.242 572.141 393.184 574.736C395.191 577.266 396.194 580.672 396.194 584.954C396.194 588.392 395.255 591.636 393.378 594.685C391.565 597.734 388.879 600.199 385.318 602.081C381.822 603.897 377.679 604.805 372.888 604.805Z" fill="black"/>
  <path d="M405.566 577.072C405.566 571.687 406.667 566.919 408.868 562.767C411.134 558.615 414.177 555.404 417.996 553.133C421.88 550.798 426.153 549.63 430.814 549.63C435.022 549.63 438.68 550.473 441.787 552.16C444.96 553.782 447.484 555.825 449.362 558.291V550.506H460.529V604.124H449.362V596.145C447.484 598.675 444.927 600.783 441.69 602.47C438.453 604.157 434.763 605 430.62 605C426.024 605 421.816 603.832 417.996 601.497C414.177 599.096 411.134 595.788 408.868 591.571C406.667 587.289 405.566 582.456 405.566 577.072ZM449.362 577.266C449.362 573.569 448.585 570.357 447.031 567.633C445.542 564.908 443.568 562.832 441.108 561.405C438.648 559.977 435.993 559.264 433.145 559.264C430.296 559.264 427.642 559.977 425.182 561.405C422.722 562.767 420.715 564.81 419.161 567.535C417.672 570.195 416.928 573.374 416.928 577.072C416.928 580.77 417.672 584.013 419.161 586.803C420.715 589.592 422.722 591.733 425.182 593.225C427.707 594.653 430.361 595.366 433.145 595.366C435.993 595.366 438.648 594.653 441.108 593.225C443.568 591.798 445.542 589.722 447.031 586.997C448.585 584.208 449.362 580.964 449.362 577.266Z" fill="black"/>
  <path d="M497.501 559.556H487.596V604.124H476.429V559.556H470.117V550.506H476.429V546.711C476.429 540.548 478.047 536.071 481.284 533.282C484.586 530.427 489.733 529 496.724 529V538.245C493.358 538.245 490.995 538.893 489.635 540.191C488.276 541.423 487.596 543.597 487.596 546.711V550.506H497.501V559.556Z" fill="black"/>
  <path d="M556.351 576.001C556.351 578.012 556.222 579.829 555.963 581.451H515.081C515.404 585.732 516.99 589.171 519.839 591.766C522.687 594.361 526.183 595.658 530.326 595.658C536.282 595.658 540.49 593.16 542.95 588.165H554.895C553.276 593.096 550.331 597.15 546.058 600.329C541.85 603.443 536.606 605 530.326 605C525.212 605 520.616 603.865 516.537 601.594C512.523 599.259 509.351 596.015 507.021 591.863C504.755 587.646 503.622 582.781 503.622 577.266C503.622 571.752 504.722 566.919 506.924 562.767C509.189 558.55 512.329 555.306 516.343 553.036C520.421 550.765 525.083 549.63 530.326 549.63C535.376 549.63 539.875 550.733 543.824 552.939C547.773 555.144 550.848 558.258 553.049 562.28C555.251 566.238 556.351 570.811 556.351 576.001ZM544.795 572.498C544.731 568.411 543.274 565.135 540.426 562.67C537.577 560.204 534.049 558.972 529.841 558.972C526.021 558.972 522.752 560.204 520.033 562.67C517.314 565.07 515.696 568.346 515.178 572.498H544.795Z" fill="black"/>
  <path d="M580.161 559.556V589.236C580.161 591.247 580.614 592.706 581.52 593.615C582.491 594.458 584.11 594.88 586.375 594.88H593.173V604.124H584.433C579.449 604.124 575.629 602.956 572.975 600.621C570.32 598.286 568.993 594.49 568.993 589.236V559.556H562.681V550.506H568.993V537.174H580.161V550.506H593.173V559.556H580.161Z" fill="black"/>
  <path d="M609.008 543.402C607.001 543.402 605.318 542.721 603.959 541.359C602.599 539.996 601.919 538.309 601.919 536.298C601.919 534.287 602.599 532.601 603.959 531.238C605.318 529.876 607.001 529.195 609.008 529.195C610.95 529.195 612.601 529.876 613.961 531.238C615.32 532.601 616 534.287 616 536.298C616 538.309 615.32 539.996 613.961 541.359C612.601 542.721 610.95 543.402 609.008 543.402ZM614.446 550.506V604.124H603.376V550.506H614.446Z" fill="black"/>
</svg>