<svg width="156" height="143" viewBox="0 0 156 143" fill="none" xmlns="http://www.w3.org/2000/svg">
  <!-- Four staggered horizontal bars - Safeti icon (black) -->
  <path d="M8.592 0C3.847 0 0 3.857 0 8.614V13.729C0 18.487 3.847 22.344 8.592 22.344H147.408C152.153 22.344 156 18.487 156 13.729V8.614C156 3.857 152.153 0 147.408 0H8.592Z" fill="black"/>
  <path d="M0 48.833C0 44.076 3.847 40.219 8.592 40.219H91.694C96.439 40.219 100.286 44.076 100.286 48.833V53.948C100.286 58.706 96.439 62.562 91.694 62.562H8.592C3.847 62.562 0 58.706 0 53.948V48.833Z" fill="black"/>
  <path d="M64.306 80.438C59.561 80.438 55.714 84.294 55.714 89.052V94.167C55.714 98.924 59.561 102.781 64.306 102.781H147.408C152.153 102.781 156 98.924 156 94.167V89.052C156 84.294 152.153 80.438 147.408 80.438H64.306Z" fill="black"/>
  <path d="M8.592 120.656C3.847 120.656 0 124.513 0 129.271V134.386C0 139.143 3.847 143 8.592 143H147.408C152.153 143 156 139.143 156 134.386V129.271C156 124.513 152.153 120.656 147.408 120.656H8.592Z" fill="black"/>
</svg>